PathFileType	4	(X/Y/Z)	./resultDataOpenSim/trcMotMarkerGrf/sub06/qtm-04-03.trc
DataRate	CameraRate	NumFrames	NumMarkers	Units	OrigDataRate	OrigDataStartFrame	OrigNumFrames
250.000000	250.000000	13	24	m	250.000000	128	510
Frame#	Time	L.Toe.Tip			R.Toe.Tip			L.Ankle.Lat			R.Ankle.Lat			L.Ankle.Med			R.Ankle.Med			L.Heel			R.Heel			L.Knee.Lat			R.Knee.Lat			L.Knee.Med			R.Knee.Med			L.Thigh.Upper			R.Thigh.Upper			L.ASIS			R.ASIS			V.Sacral			L.Acromium			R.Acromium			C7			L.Elbow			R.Elbow			L.Wrist.Lat			R.Wrist.Lat
		X1	Y1	Z1	X2	Y2	Z2	X3	Y3	Z3	X4	Y4	Z4	X5	Y5	Z5	X6	Y6	Z6	X7	Y7	Z7	X8	Y8	Z8	X9	Y9	Z9	X10	Y10	Z10	X11	Y11	Z11	X12	Y12	Z12	X13	Y13	Z13	X14	Y14	Z14	X15	Y15	Z15	X16	Y16	Z16	X17	Y17	Z17	X18	Y18	Z18	X19	Y19	Z19	X20	Y20	Z20	X21	Y21	Z21	X22	Y22	Z22	X23	Y23	Z23	X24	Y24	Z24

128	0.508	-0.1708486	0.12269928	-0.050753233	-0.80676169	0.03542209	0.13011878	-0.29704927	0.09930724	-0.049054494	-0.93908574	0.068145086	0.14250363	-0.28880973	0.12053641	0.033981433	-0.91216658	0.081899227	0.056537663	-0.33889247	0.042546601	0.013756345	-0.99322556	0.047240726	0.076813634	-0.42575494	0.44436136	-0.058305527	-0.76033196	0.41716391	0.17591226	-0.42783869	0.44172004	0.06587355	-0.78350738	0.41704643	0.044720228	-0.61507314	0.78684296	-0.1075847	-0.67761502	0.77130455	0.23580531	-0.55474674	0.83481876	-0.054738492	-0.56901965	0.8254546	0.19479471	-0.74941033	0.89774798	0.067683063	-0.65255877	1.3122877	-0.1181047	-0.62484059	1.3033037	0.24093838	-0.71913309	1.3390387	0.067704417	-0.76180346	1.0214282	-0.1580065	-0.6137768	0.99417315	0.35584236	-0.69479004	0.79423317	-0.22234638	-0.36598346	0.95296841	0.31918603
129	0.512	-0.1595356	0.12403704	-0.050174624	-0.80671151	0.035406313	0.13010268	-0.2854004	0.099011699	-0.048479602	-0.938467	0.068440943	0.14225217	-0.27758941	0.12029256	0.034604469	-0.91162345	0.081868627	0.056243494	-0.32645541	0.041640348	0.014372701	-0.9929841	0.047716967	0.076379315	-0.41824311	0.44214925	-0.057513452	-0.75597036	0.41536718	0.17576635	-0.42106703	0.43918908	0.066827965	-0.77880369	0.41542006	0.044614347	-0.60734242	0.78367142	-0.10749314	-0.67177979	0.76902387	0.23534864	-0.54754404	0.83189616	-0.054513255	-0.56328722	0.82310474	0.19509599	-0.74289221	0.89542711	0.067062364	-0.64680031	1.3097317	-0.11826046	-0.61908143	1.3007492	0.24090312	-0.71352991	1.3365999	0.067642431	-0.75675917	1.01948	-0.15812672	-0.60574567	0.99181913	0.35602302	-0.69166634	0.79205968	-0.22318066	-0.35768551	0.95290705	0.31835979
130	0.516	-0.1485578	0.12497815	-0.049409947	-0.80666236	0.035390483	0.13007977	-0.27407992	0.098521825	-0.047869251	-0.93772833	0.068803945	0.14195759	-0.26679893	0.11985967	0.035249113	-0.91102094	0.081881228	0.055915655	-0.31446012	0.040573257	0.014877847	-0.99273015	0.048239704	0.075923386	-0.41067232	0.43996082	-0.056781507	-0.75162002	0.41354511	0.17561695	-0.41429002	0.43659779	0.067745949	-0.77398793	0.41378666	0.044494796	-0.59969887	0.78054375	-0.10738248	-0.66609741	0.76678238	0.23516715	-0.54028827	0.82890556	-0.054222877	-0.55736887	0.82072838	0.19552375	-0.73616626	0.89295525	0.065927785	-0.64103062	1.307144	-0.1184337	-0.61333667	1.298171	0.2408777	-0.70783215	1.3341237	0.067559278	-0.75166012	1.0174612	-0.15825985	-0.59769938	0.98944856	0.35615396	-0.6886019	0.78984712	-0.22402067	-0.34941704	0.95273857	0.31752998
131	0.52	-0.13788858	0.12552249	-0.048429373	-0.80661391	0.035375072	0.13005077	-0.26310767	0.097833434	-0.047256706	-0.93709438	0.069208897	0.14162431	-0.25645737	0.11919961	0.035887926	-0.91035815	0.081943819	0.055562209	-0.30295853	0.039303496	0.01511853	-0.99246164	0.048806722	0.075454541	-0.40308975	0.43780066	-0.056077035	-0.74727472	0.41170763	0.1754905	-0.40748896	0.4339844	0.06862296	-0.7690865	0.41214205	0.044355497	-0.59217757	0.7774695	-0.10728591	-0.66049718	0.76454797	0.23511558	-0.53297997	0.82586438	-0.053887272	-0.55133313	0.81832687	0.19602196	-0.72928779	0.8903563	0.06436335	-0.63523071	1.3045361	-0.11862763	-0.60759732	1.2955699	0.24085339	-0.70205074	1.3316057	0.067454479	-0.74650605	1.0153909	-0.15841118	-0.58965616	0.98707723	0.35626042	-0.68555023	0.78759376	-0.22484428	-0.34124066	0.95245229	0.31670527
132	0.524	-0.12751929	0.12569574	-0.047215446	-0.80656214	0.035364011	0.13002228	-0.25249645	0.096950501	-0.046661899	-0.93678318	0.069617209	0.14126025	-0.24656048	0.11828939	0.036513556	-0.90964347	0.082062512	0.055193589	-0.29192847	0.037813567	0.015033388	-0.99217483	0.04943614	0.074970114	-0.39548271	0.43568299	-0.055396202	-0.7429258	0.40986387	0.1753956	-0.40064079	0.43139676	0.069448071	-0.76413416	0.41047739	0.044196286	-0.58471327	0.77445454	-0.10721473	-0.65493007	0.76230272	0.23504633	-0.52562542	0.82279148	-0.053517891	-0.54524431	0.81589905	0.19653875	-0.7223628	0.88774994	0.062887397	-0.62939	1.3019332	-0.11884101	-0.60185227	1.2929514	0.24082035	-0.69621536	1.3290544	0.067335362	-0.74129872	1.0132848	-0.15857406	-0.58161579	0.98470997	0.35633997	-0.68244451	0.78530295	-0.22565795	-0.33317858	0.95204677	0.31589245
133	0.528	-0.11745338	0.12553177	-0.045755474	-0.80650373	0.03536321	0.13000265	-0.24224555	0.095880905	-0.046089888	-0.93675031	0.070023055	0.14088125	-0.23706394	0.11713103	0.037152174	-0.90890542	0.082235661	0.054832935	-0.28139216	0.036132874	0.014713413	-0.99186419	0.050150365	0.074455523	-0.38779062	0.43360493	-0.05476565	-0.73857036	0.40801526	0.17531946	-0.39372514	0.42887685	0.070204078	-0.75916106	0.40878887	0.044017185	-0.57722413	0.77152078	-0.10716631	-0.64936267	0.76003804	0.23483849	-0.51822588	0.81970372	-0.053111467	-0.53914362	0.81344692	0.19705877	-0.71545626	0.8852339	0.061955084	-0.62351487	1.2993537	-0.11907175	-0.59609467	1.2903299	0.24077523	-0.69033295	1.3264829	0.067209811	-0.73604155	1.0111501	-0.15874114	-0.57355653	0.98234452	0.35637263	-0.67920287	0.78298611	-0.22648372	-0.3251957	0.95153022	0.31508917
134	0.532	-0.10769601	0.12505426	-0.044041792	-0.80644236	0.035372551	0.12999486	-0.23234496	0.094628278	-0.045537627	-0.93672917	0.070463514	0.14050334	-0.22788595	0.1157546	0.03785425	-0.90818643	0.08245192	0.054510368	-0.27142483	0.034312361	0.014306674	-0.99152429	0.050957296	0.073899047	-0.38002347	0.43154163	-0.054198468	-0.73420802	0.40616045	0.17525232	-0.38673237	0.42644535	0.070871838	-0.75417292	0.40706849	0.043841014	-0.56964919	0.76869256	-0.10713738	-0.64376387	0.75774706	0.23440342	-0.51077183	0.8166184	-0.052655328	-0.53306882	0.81097796	0.19759026	-0.70856631	0.88280629	0.06154541	-0.61761663	1.2967821	-0.11931618	-0.59032624	1.2877201	0.2407198	-0.6843808	1.3238944	0.067075786	-0.73073657	1.0089875	-0.15891476	-0.56545139	0.97998408	0.35633912	-0.67576759	0.7806616	-0.22732966	-0.31725149	0.95091083	0.31428702
135	0.536	-0.098255877	0.1242691	-0.042086023	-0.80639356	0.035374438	0.12999719	-0.22279178	0.093186872	-0.045001359	-0.93652561	0.070976697	0.14013119	-0.21898003	0.11417814	0.038636038	-0.90749368	0.082695939	0.054224992	-0.26204221	0.03236445	0.013852594	-0.99115377	0.051857173	0.073306426	-0.37229537	0.42946631	-0.053681139	-0.72983705	0.40430286	0.17519929	-0.37965922	0.42409176	0.071439062	-0.74914586	0.40530785	0.043711965	-0.56196805	0.76596335	-0.1071287	-0.63811071	0.75543148	0.23375591	-0.50325601	0.81355202	-0.052140235	-0.52704901	0.80849278	0.19812613	-0.70166663	0.88039961	0.061277049	-0.61168237	1.2941784	-0.11956204	-0.58455398	1.2851301	0.24065301	-0.67835323	1.3212914	0.066917143	-0.72538526	1.0067952	-0.15910487	-0.5572813	0.97763256	0.35622429	-0.67219894	0.77833802	-0.22819419	-0.30932687	0.95019199	0.31347843
136	0.54	-0.089157018	0.12316927	-0.03993885	-0.8063799	0.035342615	0.13001142	-0.21360407	0.091546974	-0.044480789	-0.93614447	0.071572617	0.13975935	-0.2104307	0.11235191	0.03941724	-0.90677826	0.082956865	0.053939235	-0.25319351	0.03026888	0.01331029	-0.99075699	0.052856453	0.072704892	-0.36464824	0.42737254	-0.053197795	-0.72545988	0.40244955	0.17516389	-0.37250031	0.42178416	0.071902456	-0.74405676	0.40351258	0.043647991	-0.55419985	0.76330583	-0.10713219	-0.63238111	0.75309515	0.23301684	-0.49568687	0.81051424	-0.051570963	-0.52109759	0.80597624	0.19864152	-0.69474153	0.87795487	0.060824494	-0.60566231	1.2915176	-0.11979215	-0.57877952	1.2825614	0.24056587	-0.67229659	1.3186978	0.066713865	-0.71999056	1.0045719	-0.15931137	-0.54907795	0.97529687	0.35603967	-0.66867433	0.77599952	-0.22908843	-0.3014233	0.94937648	0.31266289
137	0.544	-0.080435637	0.12174153	-0.03768669	-0.8064076	0.035276404	0.13004149	-0.20480772	0.089703642	-0.043975411	-0.93567292	0.072245387	0.13938953	-0.20241621	0.11018253	0.040060715	-0.90599111	0.083242052	0.053635758	-0.24484033	0.028018119	0.012691351	-0.99033913	0.053962322	0.072130177	-0.35694379	0.42528071	-0.052739604	-0.72108185	0.40060516	0.1751399	-0.36524925	0.41949697	0.072264803	-0.73891126	0.40169585	0.043625115	-0.54638747	0.7607021	-0.10712798	-0.6265669	0.75074261	0.23230535	-0.48807837	0.8075078	-0.050960542	-0.51519918	0.80341721	0.19913524	-0.68779099	0.87545632	0.060129653	-0.59950781	1.2888067	-0.12000388	-0.57299999	1.2800148	0.2404457	-0.66626139	1.3161351	0.066456657	-0.71454715	1.0023221	-0.15950886	-0.54093703	0.97299355	0.3558336	-0.66525657	0.77363704	-0.2300104	-0.29355553	0.94847164	0.31184813
138	0.548	-0.072119011	0.11997102	-0.035419156	-0.80645144	0.03520842	0.13007978	-0.19641417	0.087660651	-0.043486012	-0.93517142	0.072988506	0.13904114	-0.19504069	0.10763013	0.040495059	-0.90512467	0.083585072	0.053341727	-0.23696709	0.025620827	0.012062057	-0.9898967	0.055174242	0.071600765	-0.34905677	0.42321219	-0.052314043	-0.71669682	0.39876964	0.17512804	-0.35790432	0.41722631	0.072534361	-0.73373039	0.39986069	0.043617722	-0.53857544	0.75815041	-0.10710582	-0.62070304	0.74839251	0.23167742	-0.4804363	0.80453507	-0.050319917	-0.5092928	0.80083246	0.19964126	-0.68082372	0.87291611	0.059287448	-0.59320902	1.2860671	-0.120216	-0.5672276	1.2774923	0.24029088	-0.66025021	1.313583	0.066149906	-0.70903583	1.0000571	-0.15966374	-0.53293464	0.97073449	0.35564408	-0.66173414	0.77127934	-0.23090635	-0.28573599	0.94748581	0.31104289
139	0.552	-0.064213303	0.11784572	-0.033203675	-0.80648403	0.035159078	0.13010726	-0.18841976	0.085430125	-0.04302979	-0.93465733	0.073795442	0.13874098	-0.18825014	0.10474741	0.040762287	-0.9042003	0.084021492	0.053088635	-0.22954788	0.023084202	0.011481263	-0.98940997	0.056492242	0.071107138	-0.3410565	0.42116199	-0.051953137	-0.71228744	0.39694202	0.17514263	-0.35046979	0.41497934	0.072722663	-0.72852363	0.39799803	0.043625463	-0.53078418	0.75565329	-0.10707424	-0.61483093	0.74606052	0.23113395	-0.47276339	0.80160323	-0.049658461	-0.50330614	0.79825213	0.20018602	-0.67384096	0.87034645	0.058386482	-0.58678086	1.2833127	-0.12045236	-0.56150402	1.2749943	0.24011695	-0.6542355	1.3109967	0.06580137	-0.70344326	0.99778848	-0.15977998	-0.52506482	0.96851662	0.35546398	-0.6578285	0.76896147	-0.23170995	-0.27796521	0.94642168	0.31025052
140	0.556	-0.056711567	0.11535965	-0.031086571	-0.80650611	0.035110644	0.1301107	-0.1808182	0.083025047	-0.042639372	-0.93411592	0.074661318	0.13851135	-0.18188805	0.10163767	0.040957838	-0.90325754	0.084553535	0.052889795	-0.22254843	0.020410186	0.010990474	-0.98885716	0.057927387	0.070642298	-0.33306825	0.41911873	-0.051681496	-0.70784107	0.39512424	0.17519217	-0.34295678	0.41275959	0.072841035	-0.72328355	0.39609875	0.043656629	-0.52299305	0.75320884	-0.10704809	-0.6089437	0.74373038	0.23064045	-0.46506312	0.79872471	-0.048984496	-0.49721333	0.79568969	0.20075864	-0.66681687	0.86774747	0.057465014	-0.58023484	1.2805446	-0.12073005	-0.55587232	1.2725196	0.23994008	-0.64818726	1.3083541	0.065411806	-0.69778017	0.99552307	-0.15991285	-0.51728008	0.96633273	0.35526582	-0.65349342	0.76667681	-0.2324188	-0.27023562	0.94527647	0.30946913
